<?xml version="1.0" encoding="UTF-8"?>
<svg id="Calque_1" xmlns="http://www.w3.org/2000/svg" version="1.1" viewBox="0 0 481 474.2">
  <!-- Generator: Adobe Illustrator 29.7.1, SVG Export Plug-In . SVG Version: 2.1.1 Build 8)  -->
  <defs>
    <style>
      .st0 {
        fill: #00a1a6;
      }

      .st1 {
        fill: #fff;
      }
    </style>
  </defs>
  <path class="st0" d="M47.6,112.8c-2.8,0-4-1.2-4-4v-6.1c-17-2.5-21.7-10.6-21.7-21.7v-36.5c0-13.4,6.7-22.5,34.2-22.5s34.1,9.1,34.1,22.5v36.5c0,11.1-4.5,19.2-21.8,21.7v6.1c0,2.8-1.2,4-4,4,0,0-16.9,0-16.9,0ZM56.2,83.8c8,0,9.2-2.2,9.2-5.2v-30c0-2.9-1.2-5.1-9.2-5.1s-9.2,2.2-9.2,5.1v30c0,3,1.3,5.2,9.2,5.2ZM137.7,104.5c-27.3,0-34-9-34-22.4V27.6c0-2.8,1.2-4,4-4h17.3c2.8,0,4,1.2,4,4v50.2c0,3,1.3,5.2,9,5.2s9.1-2.2,9.1-5.2V27.6c0-2.8,1.1-4,4-4h16.7c2.8,0,4,1.2,4,4v54.4c0,13.4-6.7,22.4-34,22.4h0ZM184.6,98.9v-13.1c0-2.8,1.2-4,4-4h10.9v-37h-10.9c-2.8,0-4-1.2-4-4v-13.3c0-2.8,1.2-4,4-4h46.9c2.8,0,4,1.2,4,4v13.3c0,2.8-1.2,4-4,4h-10.7v37h10.7c2.8,0,4,1.2,4,4v13.1c0,2.8-1.2,4-4,4h-46.9c-2.8,0-4-1.2-4-4ZM32.7,196.4c-2.8,0-4-1.2-4-4v-71.3c0-2.8,1.2-4,4-4h51c2.8,0,4,1.2,4,4v12.9c0,2.8-1.2,4-4,4h-30.4v8.5h21.4c2.8,0,4,1.2,4,4v11.8c0,2.8-1.2,4-4,4h-21.5v9.5h30.4c2.8,0,4,1.2,4,4v12.9c0,2.8-1.2,4-4,4h-51ZM102.7,196.4c-2.8,0-4-1.2-4-4v-12.9c0-2.8,1.2-4,4-4h29.6c1.9,0,2.9-1.4,2.9-3.2,0-2.5-1-3.5-2.9-3.7l-16.5-2.3c-10.3-1.5-17.1-5.9-17.1-18.3v-11.6c0-12.5,8.5-19.4,22.8-19.4h30.8c2.8,0,4,1.2,4,4v13.1c0,2.8-1.2,4-4,4h-25.6c-1.9,0-3,1.3-3,3.3s1.1,3.3,3,3.5l16.4,2.2c10.3,1.5,17.2,5.9,17.2,18.3v11.6c0,12.5-8.6,19.4-22.8,19.4h-34.8ZM190.7,196.4c-2.8,0-4-1.2-4-4v-54h-16.2c-2.8,0-4-1.2-4-4v-13.3c0-2.8,1.2-4,4-4h58.1c2.8,0,4,1.2,4,4v13.3c0,2.8-1.2,4-4,4h-16.2v54c0,2.8-1.2,4-4,4h-17.8ZM47.6,299.9c-2.8,0-4-1.2-4-4v-6c-17-2.5-21.7-10.6-21.7-21.7v-36.5c0-13.4,6.7-22.6,34.2-22.6s34.1,9.1,34.1,22.6v36.5c0,11.1-4.5,19.2-21.8,21.7v6c0,2.8-1.2,4-4,4,0,0-16.9,0-16.9,0ZM56.2,271c8,0,9.2-2.2,9.2-5.2v-30c0-2.9-1.2-5.1-9.2-5.1s-9.2,2.2-9.2,5.1v30c0,3,1.3,5.2,9.2,5.2ZM137.7,291.7c-27.3,0-34-9-34-22.4v-54.4c0-2.8,1.2-4,4-4h17.3c2.8,0,4,1.2,4,4v50.2c0,3,1.3,5.2,9,5.2s9.1-2.2,9.1-5.2v-50.2c0-2.8,1.1-4,4-4h16.7c2.8,0,4,1.2,4,4v54.5c0,13.4-6.7,22.4-34,22.4h0ZM184.6,286.1v-13.1c0-2.8,1.2-4,4-4h10.9v-37h-10.9c-2.8,0-4-1.2-4-4v-13.3c0-2.8,1.2-4,4-4h46.9c2.8,0,4,1.2,4,4v13.3c0,2.8-1.2,4-4,4h-10.7v37h10.7c2.8,0,4,1.2,4,4v13.1c0,2.8-1.2,4-4,4h-46.9c-2.8,0-4-1.2-4-4Z"/>
  <path class="st1" d="M301.4,202.7c-9.2,1.1-13-2.2-14.4-11.5l-7.8-48.8c-1.5-9.6,3-14.1,12.2-15.2l73.6-10.4c7.4-1.1,10-4.1,10-11.5s-3.7-10.4-10-10.4h-102.1c-9.2,0-13.3-3.7-13.3-13.3v-44.8c0-9.2,4.1-13.3,13.3-13.3h119.5c48.1,0,76.6,22.9,76.6,65.1v38.8c0,41.4-22.2,56.6-57.4,61.4l-100.3,13.7h0ZM292.5,290c-9.6,0-13.3-4.1-13.3-13.3v-48.5c0-9.6,3.7-13.3,13.3-13.3h67.7c9.2,0,13.3,3.7,13.3,13.3v48.5c0,9.2-4.1,13.3-13.3,13.3h-67.7Z"/>
  <path class="st1" d="M47.2,371.1c-15.6,0-22.8-6-22.8-18.9v-28.8c0-13,7.2-19,22.8-19h22.6c2.3,0,3.3,1,3.3,3.3v11.2c0,2.3-1,3.3-3.3,3.3h-18.6c-3.9,0-5.7,1.5-5.7,4.6v22c0,3.1,1.8,4.5,5.7,4.5h18.6c2.3,0,3.3,1,3.3,3.3v11c0,2.3-1,3.3-3.3,3.3h-22.6ZM111.8,372.5c-23,0-28.6-7.6-28.6-18.9v-45.9c0-2.3,1-3.3,3.3-3.3h14.6c2.3,0,3.3,1,3.3,3.3v42.2c0,2.5,1.1,4.4,7.6,4.4s7.7-1.9,7.7-4.4v-42.2c0-2.3.9-3.3,3.3-3.3h14.1c2.3,0,3.3,1,3.3,3.3v45.9c0,11.3-5.6,18.9-28.6,18.9h0ZM156.1,371.1c-2.3,0-3.3-1-3.3-3.3v-60c0-2.3,1-3.3,3.3-3.3h14.4c2.3,0,3.3,1,3.3,3.3v45.9h12.7v-15c0-2.3,1-3.3,3.3-3.3h13.4c2.3,0,3.3,1,3.3,3.3v29.2c0,2.3-1,3.3-3.3,3.3h-47.2ZM227.1,371.1c-2.3,0-3.3-1-3.3-3.3v-45.5h-13.6c-2.3,0-3.3-1-3.3-3.3v-11.2c0-2.3,1-3.3,3.3-3.3h48.9c2.3,0,3.3,1,3.3,3.3v11.2c0,2.3-1,3.3-3.3,3.3h-13.6v45.5c0,2.3-1,3.3-3.3,3.3h-15,0ZM299.6,372.5c-23,0-28.6-7.6-28.6-18.9v-45.9c0-2.3,1-3.3,3.3-3.3h14.5c2.3,0,3.3,1,3.3,3.3v42.2c0,2.5,1.1,4.4,7.6,4.4s7.7-1.9,7.7-4.4v-42.2c0-2.3.9-3.3,3.3-3.3h14.1c2.3,0,3.3,1,3.3,3.3v45.9c0,11.3-5.6,18.9-28.6,18.9h0ZM343.9,371.1c-2.3,0-3.3-1-3.3-3.3v-60c0-2.3,1-3.3,3.3-3.3h30.9c13.9,0,18.2,6.3,18.2,15.5v4.3c0,5.2-1.3,8.9-5.2,10.6,6.8.7,11.2,5.6,11.2,13.4v19.6c0,2.3-1,3.3-3.3,3.3h-14.4c-2.3,0-3.3-1-3.3-3.3v-14.2c0-2.8-.9-4-3.5-4h-13v18.2c0,2.3-1,3.3-3.3,3.3h-14.3,0ZM361.5,333h7c3.2,0,4.1-1.9,4.1-4.4v-3.1c0-2.5-.8-4.4-4.1-4.4h-7v11.9h0ZM412.7,371.1c-2.3,0-3.3-1-3.3-3.3v-60c0-2.3,1-3.3,3.3-3.3h43c2.3,0,3.3,1,3.3,3.3v10.8c0,2.3-1,3.3-3.3,3.3h-25.6v7.1h18.1c2.3,0,3.3,1,3.3,3.3v9.9c0,2.3-1,3.3-3.3,3.3h-18.1v8h25.6c2.3,0,3.3,1,3.3,3.3v10.8c0,2.3-1,3.3-3.3,3.3h-43Z"/>
  <path class="st1" d="M28.8,452.2c-2.3,0-3.3-1-3.3-3.3v-60c0-2.3,1-3.3,3.3-3.3h31.2c15.6,0,22.8,6,22.8,18.9v28.9c0,12.9-7.2,18.9-22.8,18.9h-31.2,0ZM46.5,434.7h11c3,0,4.3-1.4,4.3-4.5v-22.5c0-3.1-1.4-4.5-4.3-4.5h-11v31.5h0ZM97.9,452.2c-2.3,0-3.3-1-3.3-3.3v-60c0-2.3,1-3.3,3.3-3.3h43c2.3,0,3.3,1,3.3,3.3v10.8c0,2.3-1,3.3-3.3,3.3h-25.6v7.1h18.1c2.3,0,3.3,1,3.3,3.3v9.9c0,2.3-1,3.3-3.3,3.3h-18.1v8h25.6c2.3,0,3.3,1,3.3,3.3v10.8c0,2.3-1,3.3-3.3,3.3h-43ZM156.8,452.2c-2.3,0-3.3-1-3.3-3.3v-10.8c0-2.3,1-3.3,3.3-3.3h24.9c1.6,0,2.4-1.2,2.4-2.7,0-2.1-.8-3-2.4-3.1l-13.9-2c-8.7-1.3-14.4-5-14.4-15.4v-9.7c0-10.6,7.1-16.3,19.2-16.3h25.9c2.3,0,3.3,1,3.3,3.3v11c0,2.3-1,3.3-3.3,3.3h-21.6c-1.6,0-2.5,1.1-2.5,2.8s.9,2.8,2.5,3l13.8,1.9c8.7,1.3,14.4,5,14.4,15.4v9.7c0,10.6-7.2,16.3-19.2,16.3h-29.3,0ZM213.9,448.9v-11c0-2.3,1-3.3,3.3-3.3h9.2v-31.1h-9.2c-2.3,0-3.3-1-3.3-3.3v-11.2c0-2.3,1-3.3,3.3-3.3h39.5c2.3,0,3.3,1,3.3,3.3v11.2c0,2.3-1,3.3-3.3,3.3h-9v31.1h9c2.3,0,3.3,1,3.3,3.3v11c0,2.3-1,3.3-3.3,3.3h-39.5c-2.3,0-3.3-1-3.3-3.3ZM293.2,452.2c-15.6,0-22.8-6-22.8-18.9v-28.9c0-12.9,7.2-18.9,22.8-18.9h23.2c2.3,0,3.3,1,3.3,3.3v11.2c0,2.3-1,3.3-3.3,3.3h-19.3c-3.9,0-5.6,1.5-5.6,4.6v22.1c0,3.1,1.4,4.5,4.3,4.5h9v-14.5c0-2.3,1-3.3,3.3-3.3h14.4c2.3,0,3.3,1,3.3,3.3v28.6c0,2.3-1,3.3-3.3,3.3h-29.2ZM340.4,452.2c-2.3,0-3.3-1-3.3-3.3v-60c0-2.3,1-3.3,3.3-3.3h9.6c2.4,0,3.9.6,5.5,2.5l18,20.6v-19.7c0-2.3,1-3.3,3.3-3.3h13.9c2.3,0,3.3,1,3.3,3.3v60c0,2.3-1,3.3-3.3,3.3h-13.9c-2.3,0-3.3-1-3.3-3.3v-11.4l-15.8-19.2v30.6c0,2.3-1,3.3-3.3,3.3h-13.9Z"/>
</svg>